<svg width="149" height="40" viewBox="0 0 149 40" fill="none" xmlns="http://www.w3.org/2000/svg">
<path d="M60.5234 12.1092V15.2622H56.212V27.8933H53.0997V15.2594H48.7657V12.1064H60.5205L60.5234 12.1092Z" fill="#2E2E2E"/>
<path d="M83.892 20.0001C83.892 24.3478 80.3932 27.8908 76.1044 27.8908C71.8156 27.8908 68.3168 24.3478 68.3168 20.0001C68.3168 15.6524 71.8156 12.1094 76.1044 12.1094C80.3932 12.1094 83.892 15.6524 83.892 20.0001ZM71.4036 20.0001C71.4036 22.6312 73.5057 24.7597 76.1016 24.7597C78.6974 24.7597 80.7995 22.6285 80.7995 20.0001C80.7995 17.3717 78.6974 15.2404 76.1016 15.2404C73.5057 15.2404 71.4036 17.3717 71.4036 20.0001Z" fill="#2E2E2E"/>
<path d="M95.9966 20.6757L94.7946 21.9144V27.888H91.6796V12.1094H94.7946V17.2041L99.3571 12.1094H103.564L98.1128 18.2863L103.7 27.8908H99.9835L95.9994 20.6757H95.9966Z" fill="#2E2E2E"/>
<path d="M124.752 12.1094L119.684 22.1066V27.8935H116.572V22.1066L111.482 12.1094H114.927L118.127 18.0528L121.304 12.1094H124.749H124.752Z" fill="#2E2E2E"/>
<path d="M148.148 20.0001C148.148 24.3478 144.649 27.8908 140.36 27.8908C136.072 27.8908 132.573 24.3478 132.573 20.0001C132.573 15.6524 136.072 12.1094 140.36 12.1094C144.649 12.1094 148.148 15.6524 148.148 20.0001ZM135.66 20.0001C135.66 22.6312 137.762 24.7597 140.358 24.7597C142.953 24.7597 145.056 22.6285 145.056 20.0001C145.056 17.3717 142.953 15.2404 140.358 15.2404C137.762 15.2404 135.66 17.3717 135.66 20.0001Z" fill="#2E2E2E"/>
<path fill-rule="evenodd" clip-rule="evenodd" d="M19.7399 0C8.83725 0 0 8.95358 0 20C0 31.0464 8.83725 40 19.7399 40C30.6426 40 39.4798 31.0464 39.4798 20C39.4798 8.95358 30.6426 0 19.7399 0ZM31.1392 10.5438L30.3632 10.8047C30.3012 10.8322 30.3237 10.6674 30.3407 10.6482L30.7442 10.3268C30.7442 10.3268 30.6285 10.3049 30.3491 10.2115C30.3491 10.2115 28.1568 13.1667 26.8475 13.1392C26.8475 13.1392 26.5428 14.0676 25.7443 14.7322C25.7443 14.7322 25.1856 15.4106 24.1021 15.7484C24.1021 15.7484 24.2347 16.663 23.7607 18.2148C23.487 19.1074 23.2754 19.1019 23.1653 20.1675C23.3826 20.1154 23.5942 20.0275 23.7522 19.8627C24.0118 19.588 24.1021 19.2035 24.4068 18.9673C24.6664 18.7668 25.0135 18.6707 25.338 18.6872C25.6455 18.7037 26.3679 18.7476 26.6444 18.2587C26.5823 18.6652 26.3312 19.1815 25.3944 19.2145C25.3944 19.2145 26.1337 19.4534 26.5372 19.058C26.5372 19.058 26.4243 20.3763 24.8583 19.838C24.8583 19.838 24.5141 19.6484 24.3278 19.9341C24.3278 19.9341 23.9187 20.942 23.3741 21.214C23.3741 21.214 23.377 21.2167 23.3798 21.2167C23.377 21.2167 23.3713 21.2167 23.3685 21.2167C23.3629 21.2167 23.3572 21.2222 23.3516 21.2249C23.8566 21.4749 24.6326 21.9445 25.2815 22.6037C25.2815 22.6037 26.1957 23.0486 26.904 23.4496C27.378 23.7188 27.6037 23.922 27.9564 24.3395C28.4446 24.9162 27.9395 25.7045 27.409 26.0286C26.9406 26.3142 26.1901 26.4708 25.654 26.3609C25.654 26.3609 23.7522 25.9709 22.6433 25.8281C22.6433 25.8281 21.5062 25.8857 21.5345 26.6053C21.5345 26.6053 20.7247 27.9017 19.6327 28.2889C19.5424 28.3219 19.4465 28.3246 19.3534 28.3027L19.1276 28.2477C19.0515 28.2285 18.9978 28.1626 18.9978 28.0829C18.995 27.6627 19.0543 26.3829 19.8838 25.9984C19.8838 25.9984 20.4538 25.9709 20.4538 25.3364C20.4538 25.3364 20.4256 24.9052 20.8234 24.7322C20.8234 24.7322 21.4921 24.1719 19.833 24.4795C19.4239 24.7899 18.9753 25.0536 18.521 25.2843C18.1203 25.4875 17.7027 25.666 17.2682 25.7869C16.9889 25.8638 16.7349 25.8418 16.6503 26.1796C16.6192 26.2977 16.6136 26.4213 16.5854 26.5394C16.4528 27.086 15.9167 27.432 15.564 27.8275C15.1774 28.2615 14.8049 28.7119 14.4692 29.187C14.4127 29.2694 14.3027 29.4782 14.1757 29.6292C14.266 29.6073 14.3507 29.5715 14.4297 29.5249C14.5905 29.4315 14.7259 29.2996 14.8473 29.1568C15.121 28.8327 15.3185 28.2725 15.8235 28.2999C15.9618 28.3082 16.1113 28.3521 16.2355 28.418C16.2637 28.4318 16.3794 28.5334 16.402 28.5306C16.2411 28.5553 16.0859 28.5389 15.9251 28.591C15.7389 28.6487 15.5696 28.7723 15.4878 28.9563C15.516 28.8932 15.753 28.9701 15.7953 28.981C16.0493 29.0442 16.2355 29.231 16.2722 29.4946C16.3201 29.8242 16.1283 30.1456 16.0493 30.4587C16.0211 30.5685 15.9872 30.6811 15.9674 30.7937C15.9505 30.8981 15.9618 31.0025 15.9562 31.0986C15.8348 30.8761 15.753 30.6207 15.6937 30.3735C15.643 30.1593 15.6655 29.8682 15.5527 29.6759C15.5132 29.61 15.4426 29.5715 15.3721 29.5551C15.1971 29.5139 15.073 29.7171 14.9291 29.8682C14.9291 29.8682 14.3196 30.6537 13.5183 30.228C13.3687 30.5054 13.2333 30.9393 13.3292 31.5435C13.3518 31.6863 13.3067 31.8292 13.2051 31.9308C13.0471 32.0901 12.7734 32.3675 12.384 32.7602C12.1413 33.0047 11.862 33.2107 11.5545 33.3617C11.4501 33.4139 11.3372 33.4716 11.2272 33.5375C11.0579 33.6364 10.8632 33.6831 10.6657 33.6693C10.629 33.6666 10.5923 33.6638 10.5584 33.6583C10.4512 33.6474 10.392 33.5265 10.4456 33.4331C11.182 32.1423 11.1707 31.1206 11.9213 30.7498C11.8282 30.6701 12.3727 29.7611 12.4912 29.7144C12.4912 29.7144 12.8157 28.7833 13.2474 27.8797C13.7835 26.7619 14.5171 24.345 14.7316 24.1445C15.437 23.4908 16.9268 22.3675 17.7507 21.8786C17.7507 21.8786 18.4617 20.7828 18.7749 20.6976C18.7749 20.6976 18.7806 19.7748 18.9612 19.816C18.9612 19.816 18.9358 19.3628 18.3404 18.7311C17.872 18.234 17.5927 17.0228 17.5419 16.0862C17.5419 16.0862 16.0464 16.0148 15.2959 14.1829C15.2959 14.1829 13.9331 14.2296 12.7734 12.7438C12.7734 12.7438 12.2881 11.9088 11.6363 12.167C11.4698 12.2329 11.3146 12.3757 11.1679 12.4773C10.8886 12.6723 10.5895 12.8948 10.2622 13.0019C10.1691 13.0321 10.0364 13.0678 9.94897 13.0019C9.91228 12.9745 9.81353 12.8399 9.81353 12.7932C9.81353 12.6806 9.93486 12.6531 10.011 12.6064C10.1211 12.5378 10.2876 12.4361 10.3525 12.3208C10.4653 12.1203 10.502 11.9253 10.3609 11.7248C10.1888 11.4831 9.81071 11.5106 9.55676 11.5573C9.55676 11.5573 8.80057 12.1121 8.27293 11.6973L8.58613 11.3513C8.58613 11.3513 8.44787 11.3348 8.44787 11.192C8.44787 11.192 8.69617 10.9475 9.09966 10.7168C9.09966 10.7168 9.55394 10.6454 9.78249 10.6729C9.78249 10.6729 10.3299 10.5905 10.9281 10.8212C10.9281 10.8212 12.9399 11.3925 15.2141 12.1423C15.9449 12.384 15.7869 12.6147 15.9364 12.6586C16.2581 12.7547 16.543 12.7685 17.319 12.969C18.3517 13.2354 18.648 13.5183 18.8455 13.705C18.7947 13.3837 18.8737 13.0184 19.043 12.7438C19.3957 12.178 20.1744 12.0269 20.7867 12.2274C20.8008 12.2164 20.815 12.2054 20.8319 12.1945C20.8319 12.1945 20.8319 12.1945 20.8291 12.1945C20.8291 12.1945 20.8319 12.1945 20.8347 12.1945C20.8573 12.178 20.8827 12.1642 20.9052 12.1505C20.9617 12.1038 21.0294 12.0324 21.0491 12.0104C20.9052 11.9171 20.7642 11.8209 20.6485 11.6891C20.5356 11.56 20.451 11.398 20.4312 11.2249C20.403 10.953 20.5384 10.7086 20.7134 10.5136C20.894 10.3131 21.083 10.1373 21.2354 9.90937C21.3708 9.70338 21.4808 9.48915 21.5062 9.23922C21.5062 9.22549 21.5175 9.17056 21.5316 9.17056C21.5345 9.21725 21.5655 9.31063 21.5796 9.35457C21.6022 9.42873 21.605 9.51112 21.6022 9.58803C21.5937 9.78852 21.5429 9.98627 21.4752 10.1758C21.4188 10.3351 21.3313 10.4751 21.2608 10.6262C21.241 10.6701 21.2269 10.7223 21.2382 10.7718C21.2523 10.8239 21.2918 10.8624 21.3285 10.9009C21.3341 10.9063 21.3398 10.9118 21.3454 10.9091C21.3511 10.9091 21.3539 10.9036 21.3567 10.8981C21.7658 10.1456 22.4938 9.61274 23.2839 9.30239C23.9215 9.04971 23.9159 9.06345 23.4052 9.44246C22.8691 9.83796 22.7252 10.618 22.7224 11.2524C22.7224 11.3321 22.7224 11.4144 22.7054 11.4941C22.6546 11.7001 22.4571 11.7687 22.2681 11.7385C22.2878 11.7413 22.2991 11.9583 22.2991 11.983C22.2991 12.0764 22.2878 12.167 22.2624 12.2549C22.2088 12.4334 22.0875 12.5899 21.9126 12.6614C21.8815 12.6751 21.8505 12.6916 21.8194 12.7053C21.8194 12.7328 21.8194 12.7602 21.8138 12.7877C21.7912 12.958 21.6896 13.0981 21.5514 13.175C21.5514 13.1804 21.5514 13.1859 21.5542 13.1887C21.5683 13.2381 21.6473 13.5952 21.6501 13.8753C21.8759 13.8945 22.0988 13.9962 22.2455 14.0319C22.2455 14.0319 22.8973 13.4029 23.8115 12.98C23.8115 12.98 24.9514 11.9857 25.8035 11.7605L26.145 11.6644C26.2465 11.2854 26.7036 10.8212 29.8159 9.42873C29.8159 9.42873 29.7876 8.90964 30.383 8.42076C30.1996 7.8852 29.7707 6.69871 29.5958 6.1604C29.5309 5.96539 30.1065 5.66603 30.1827 5.82807C30.2335 5.93518 30.6595 6.97061 31.1533 8.22027L31.1815 8.21478C31.3988 8.17907 31.6189 8.24773 31.774 8.40154C31.9772 8.60203 32.234 8.92337 32.3468 9.33535C32.3976 9.51662 32.1634 9.7638 31.9941 9.8407L32.629 9.89014C32.66 9.89838 32.8209 10.0357 32.7221 10.0687L31.9772 10.3158L35.6284 22.2686C35.4337 23.0569 35.3547 23.2519 35.1402 24.1225L31.1448 10.5438H31.1392Z" fill="#F04634"/>
</svg>
